<svg width="121" height="101" viewBox="0 0 121 101" fill="none" xmlns="http://www.w3.org/2000/svg">
<path d="M3.194 6.294C2.34467 6.294 1.626 6 1.038 5.412C0.45 4.824 0.156 4.10533 0.156 3.256C0.156 2.40667 0.45 1.688 1.038 1.1C1.626 0.512 2.34467 0.218 3.194 0.218C4.01067 0.218 4.69667 0.512 5.252 1.1C5.84 1.688 6.134 2.40667 6.134 3.256C6.134 4.10533 5.84 4.824 5.252 5.412C4.69667 6 4.01067 6.294 3.194 6.294ZM25.9771 6.294C25.1278 6.294 24.4091 6 23.8211 5.412C23.2331 4.824 22.9391 4.10533 22.9391 3.256C22.9391 2.40667 23.2331 1.688 23.8211 1.1C24.4091 0.512 25.1278 0.218 25.9771 0.218C26.7938 0.218 27.4798 0.512 28.0351 1.1C28.6231 1.688 28.9171 2.40667 28.9171 3.256C28.9171 4.10533 28.6231 4.824 28.0351 5.412C27.4798 6 26.7938 6.294 25.9771 6.294ZM48.7602 6.294C47.9108 6.294 47.1922 6 46.6042 5.412C46.0162 4.824 45.7222 4.10533 45.7222 3.256C45.7222 2.40667 46.0162 1.688 46.6042 1.1C47.1922 0.512 47.9108 0.218 48.7602 0.218C49.5768 0.218 50.2628 0.512 50.8182 1.1C51.4062 1.688 51.7002 2.40667 51.7002 3.256C51.7002 4.10533 51.4062 4.824 50.8182 5.412C50.2628 6 49.5768 6.294 48.7602 6.294ZM71.5433 6.294C70.6939 6.294 69.9753 6 69.3873 5.412C68.7993 4.824 68.5053 4.10533 68.5053 3.256C68.5053 2.40667 68.7993 1.688 69.3873 1.1C69.9753 0.512 70.6939 0.218 71.5433 0.218C72.3599 0.218 73.0459 0.512 73.6013 1.1C74.1893 1.688 74.4833 2.40667 74.4833 3.256C74.4833 4.10533 74.1893 4.824 73.6013 5.412C73.0459 6 72.3599 6.294 71.5433 6.294ZM94.3263 6.294C93.477 6.294 92.7583 6 92.1703 5.412C91.5823 4.824 91.2883 4.10533 91.2883 3.256C91.2883 2.40667 91.5823 1.688 92.1703 1.1C92.7583 0.512 93.477 0.218 94.3263 0.218C95.143 0.218 95.829 0.512 96.3843 1.1C96.9723 1.688 97.2663 2.40667 97.2663 3.256C97.2663 4.10533 96.9723 4.824 96.3843 5.412C95.829 6 95.143 6.294 94.3263 6.294ZM117.109 6.294C116.26 6.294 115.541 6 114.953 5.412C114.365 4.824 114.071 4.10533 114.071 3.256C114.071 2.40667 114.365 1.688 114.953 1.1C115.541 0.512 116.26 0.218 117.109 0.218C117.926 0.218 118.612 0.512 119.167 1.1C119.755 1.688 120.049 2.40667 120.049 3.256C120.049 4.10533 119.755 4.824 119.167 5.412C118.612 6 117.926 6.294 117.109 6.294ZM3.194 53.294C2.34467 53.294 1.626 53 1.038 52.412C0.45 51.824 0.156 51.1053 0.156 50.256C0.156 49.4067 0.45 48.688 1.038 48.1C1.626 47.512 2.34467 47.218 3.194 47.218C4.01067 47.218 4.69667 47.512 5.252 48.1C5.84 48.688 6.134 49.4067 6.134 50.256C6.134 51.1053 5.84 51.824 5.252 52.412C4.69667 53 4.01067 53.294 3.194 53.294ZM25.9771 53.294C25.1278 53.294 24.4091 53 23.8211 52.412C23.2331 51.824 22.9391 51.1053 22.9391 50.256C22.9391 49.4067 23.2331 48.688 23.8211 48.1C24.4091 47.512 25.1278 47.218 25.9771 47.218C26.7938 47.218 27.4798 47.512 28.0351 48.1C28.6231 48.688 28.9171 49.4067 28.9171 50.256C28.9171 51.1053 28.6231 51.824 28.0351 52.412C27.4798 53 26.7938 53.294 25.9771 53.294ZM48.7602 53.294C47.9108 53.294 47.1922 53 46.6042 52.412C46.0162 51.824 45.7222 51.1053 45.7222 50.256C45.7222 49.4067 46.0162 48.688 46.6042 48.1C47.1922 47.512 47.9108 47.218 48.7602 47.218C49.5768 47.218 50.2628 47.512 50.8182 48.1C51.4062 48.688 51.7002 49.4067 51.7002 50.256C51.7002 51.1053 51.4062 51.824 50.8182 52.412C50.2628 53 49.5768 53.294 48.7602 53.294ZM71.5433 53.294C70.6939 53.294 69.9753 53 69.3873 52.412C68.7993 51.824 68.5053 51.1053 68.5053 50.256C68.5053 49.4067 68.7993 48.688 69.3873 48.1C69.9753 47.512 70.6939 47.218 71.5433 47.218C72.3599 47.218 73.0459 47.512 73.6013 48.1C74.1893 48.688 74.4833 49.4067 74.4833 50.256C74.4833 51.1053 74.1893 51.824 73.6013 52.412C73.0459 53 72.3599 53.294 71.5433 53.294ZM94.3263 53.294C93.477 53.294 92.7583 53 92.1703 52.412C91.5823 51.824 91.2883 51.1053 91.2883 50.256C91.2883 49.4067 91.5823 48.688 92.1703 48.1C92.7583 47.512 93.477 47.218 94.3263 47.218C95.143 47.218 95.829 47.512 96.3843 48.1C96.9723 48.688 97.2663 49.4067 97.2663 50.256C97.2663 51.1053 96.9723 51.824 96.3843 52.412C95.829 53 95.143 53.294 94.3263 53.294ZM117.109 53.294C116.26 53.294 115.541 53 114.953 52.412C114.365 51.824 114.071 51.1053 114.071 50.256C114.071 49.4067 114.365 48.688 114.953 48.1C115.541 47.512 116.26 47.218 117.109 47.218C117.926 47.218 118.612 47.512 119.167 48.1C119.755 48.688 120.049 49.4067 120.049 50.256C120.049 51.1053 119.755 51.824 119.167 52.412C118.612 53 117.926 53.294 117.109 53.294ZM3.194 100.294C2.34467 100.294 1.626 100 1.038 99.412C0.45 98.824 0.156 98.1053 0.156 97.256C0.156 96.4067 0.45 95.688 1.038 95.1C1.626 94.512 2.34467 94.218 3.194 94.218C4.01067 94.218 4.69667 94.512 5.252 95.1C5.84 95.688 6.134 96.4067 6.134 97.256C6.134 98.1053 5.84 98.824 5.252 99.412C4.69667 100 4.01067 100.294 3.194 100.294ZM25.9771 100.294C25.1278 100.294 24.4091 100 23.8211 99.412C23.2331 98.824 22.9391 98.1053 22.9391 97.256C22.9391 96.4067 23.2331 95.688 23.8211 95.1C24.4091 94.512 25.1278 94.218 25.9771 94.218C26.7938 94.218 27.4798 94.512 28.0351 95.1C28.6231 95.688 28.9171 96.4067 28.9171 97.256C28.9171 98.1053 28.6231 98.824 28.0351 99.412C27.4798 100 26.7938 100.294 25.9771 100.294ZM48.7602 100.294C47.9108 100.294 47.1922 100 46.6042 99.412C46.0162 98.824 45.7222 98.1053 45.7222 97.256C45.7222 96.4067 46.0162 95.688 46.6042 95.1C47.1922 94.512 47.9108 94.218 48.7602 94.218C49.5768 94.218 50.2628 94.512 50.8182 95.1C51.4062 95.688 51.7002 96.4067 51.7002 97.256C51.7002 98.1053 51.4062 98.824 50.8182 99.412C50.2628 100 49.5768 100.294 48.7602 100.294ZM71.5433 100.294C70.6939 100.294 69.9753 100 69.3873 99.412C68.7993 98.824 68.5053 98.1053 68.5053 97.256C68.5053 96.4067 68.7993 95.688 69.3873 95.1C69.9753 94.512 70.6939 94.218 71.5433 94.218C72.3599 94.218 73.0459 94.512 73.6013 95.1C74.1893 95.688 74.4833 96.4067 74.4833 97.256C74.4833 98.1053 74.1893 98.824 73.6013 99.412C73.0459 100 72.3599 100.294 71.5433 100.294ZM94.3263 100.294C93.477 100.294 92.7583 100 92.1703 99.412C91.5823 98.824 91.2883 98.1053 91.2883 97.256C91.2883 96.4067 91.5823 95.688 92.1703 95.1C92.7583 94.512 93.477 94.218 94.3263 94.218C95.143 94.218 95.829 94.512 96.3843 95.1C96.9723 95.688 97.2663 96.4067 97.2663 97.256C97.2663 98.1053 96.9723 98.824 96.3843 99.412C95.829 100 95.143 100.294 94.3263 100.294ZM117.109 100.294C116.26 100.294 115.541 100 114.953 99.412C114.365 98.824 114.071 98.1053 114.071 97.256C114.071 96.4067 114.365 95.688 114.953 95.1C115.541 94.512 116.26 94.218 117.109 94.218C117.926 94.218 118.612 94.512 119.167 95.1C119.755 95.688 120.049 96.4067 120.049 97.256C120.049 98.1053 119.755 98.824 119.167 99.412C118.612 100 117.926 100.294 117.109 100.294Z" fill="#EC615B"/>
</svg>
