<svg width="164" height="182" viewBox="0 0 164 182" fill="none" xmlns="http://www.w3.org/2000/svg">
<path d="M92.4479 166.531L70.8062 174.192C59.848 178.071 48.0359 173.042 44.4752 162.983L37.4433 143.117C36.6414 140.852 37.9925 138.307 40.46 137.433C42.9275 136.56 45.5791 137.689 46.3809 139.954L53.4128 159.819C55.3721 165.354 61.8716 168.122 67.9014 165.987L89.5431 158.327C92.0111 157.453 94.6622 158.582 95.464 160.847C96.2658 163.112 94.9154 165.658 92.4479 166.531Z" fill="#FEE187"/>
<path d="M137.575 90.6658L128.637 93.8296L113.316 50.5476C105.669 28.9445 80.3016 18.1459 56.7675 26.4763C33.2334 34.8068 20.3087 59.1593 27.9558 80.7629L43.2762 124.044L34.3382 127.208L19.0178 83.9267C9.7694 57.7995 25.4012 28.3463 53.8632 18.2715C82.3252 8.19665 113.006 21.2566 122.254 47.3838L137.575 90.6658V90.6658Z" fill="#FEE187"/>
<path d="M34.7436 149.098L27.5453 151.646C24.3666 152.771 20.9529 151.318 19.9202 148.4L8.4616 116.029C7.42871 113.111 9.16791 109.834 12.3466 108.709L19.545 106.161C22.7237 105.036 26.1374 106.489 27.1701 109.407L38.6287 141.778C39.6617 144.695 37.9224 147.973 34.7436 149.098Z" fill="white"/>
<path d="M13.7544 130.984L19.9191 148.4C20.952 151.318 24.3658 152.772 27.5445 151.647L34.7429 149.099C37.9216 147.974 39.6607 144.696 38.6276 141.778L32.4629 124.362L13.7544 130.984Z" fill="#D0D1D3"/>
<path d="M52.5175 150.537L39.3321 155.205C36.1534 156.33 32.7388 154.877 31.7061 151.959L15.3837 105.847C14.3508 102.93 16.09 99.6525 19.2697 98.527L32.456 93.8594C35.6347 92.7342 39.0482 94.1873 40.0811 97.1052L56.4033 143.217C57.4362 146.135 55.6957 149.412 52.5175 150.537Z" fill="#71E2EF"/>
<path d="M23.1094 127.673L31.7059 151.959C32.7388 154.877 36.1523 156.33 39.331 155.205L52.5173 150.537C55.696 149.412 57.4352 146.135 56.4023 143.217L47.8058 118.931L23.1094 127.673Z" fill="#38C6D9"/>
<path d="M135.832 64.9972L143.031 62.4492C146.209 61.324 149.623 62.7775 150.656 65.6951L162.114 98.0663C163.147 100.984 161.408 104.261 158.229 105.386L151.031 107.934C147.852 109.06 144.438 107.606 143.406 104.689L131.947 72.3174C130.914 69.4 132.654 66.1224 135.832 64.9972Z" fill="white"/>
<path d="M137.241 87.2735L143.405 104.689C144.438 107.607 147.852 109.06 151.031 107.935L158.229 105.387C161.408 104.262 163.147 100.984 162.114 98.0669L155.949 80.6512L137.241 87.2735Z" fill="#D0D1D3"/>
<path d="M118.058 63.5575L131.244 58.8899C134.423 57.7647 137.837 59.2182 138.87 62.1366L155.192 108.248C156.225 111.166 154.485 114.443 151.307 115.568L138.121 120.236C134.942 121.361 131.528 119.907 130.496 116.99L114.173 70.8785C113.139 67.9609 114.879 64.6828 118.058 63.5575Z" fill="#71E2EF"/>
<path d="M121.898 92.7044L130.495 116.99C131.528 119.908 134.942 121.361 138.12 120.236L151.306 115.568C154.485 114.443 156.224 111.166 155.191 108.248L146.595 83.9625L121.898 92.7044Z" fill="#38C6D9"/>
</svg>
