<svg width="376" height="252" viewBox="0 0 376 252" fill="none" xmlns="http://www.w3.org/2000/svg">
<path d="M242.872 212.231C172.858 198.781 102.844 185.33 32.8293 171.879C75.3566 152.609 117.884 133.403 160.411 114.132C226.91 130.751 293.41 147.371 359.851 163.99C320.897 180.092 281.885 196.129 242.872 212.231Z" fill="white" stroke="#161616" stroke-width="3" stroke-miterlimit="10"/>
<path d="M239.991 213.201C240.222 213.977 240.395 214.818 240.625 215.594C240.913 216.629 242.296 216.435 242.296 215.335C242.296 214.689 242.296 214.107 242.296 213.46C242.296 212.231 240.568 212.231 240.568 213.46C240.568 214.236 240.452 214.947 240.164 215.659C240.74 215.659 241.259 215.659 241.835 215.659C241.605 214.818 241.547 214.042 241.72 213.137C241.201 213.201 240.683 213.266 240.164 213.395C240.337 213.589 240.337 213.719 240.222 213.913C240.741 213.977 241.259 214.042 241.778 214.171C241.662 213.719 241.72 213.331 241.951 212.943C241.432 212.749 240.856 212.619 240.337 212.425C240.222 213.46 240.107 214.43 239.991 215.465C239.934 215.982 240.452 216.435 240.856 216.435C241.374 216.435 241.663 215.982 241.72 215.465C241.835 214.43 241.951 213.46 242.066 212.425C242.181 211.455 240.856 211.197 240.452 211.908C239.991 212.749 239.876 213.719 240.107 214.689C240.279 215.529 241.317 215.594 241.663 214.947C242.124 214.171 242.124 213.201 241.605 212.49C241.201 211.908 240.164 211.843 240.049 212.749C239.818 213.913 239.876 215.141 240.164 216.305C240.452 217.275 241.547 217.146 241.835 216.305C242.124 215.4 242.296 214.495 242.296 213.589C241.72 213.589 241.144 213.589 240.568 213.589C240.568 214.236 240.568 214.818 240.568 215.465C241.144 215.4 241.72 215.271 242.239 215.206C242.008 214.43 241.835 213.589 241.605 212.813C241.374 211.455 239.703 211.973 239.991 213.201Z" fill="#161616"/>
<path d="M241.317 217.857C250.594 212.49 260.736 209.645 270.705 206.476C275.603 204.924 280.444 203.243 285.112 201.044C289.606 198.975 293.928 196.388 298.365 194.06C308.219 188.887 318.88 185.524 329.195 181.709C339.913 177.699 350.573 173.69 361.292 169.745C362.329 169.357 361.868 167.482 360.831 167.87C350.112 171.879 339.452 175.889 328.734 179.833C318.592 183.584 308.162 186.947 298.423 191.926C293.352 194.513 288.396 197.552 283.21 199.815C278.485 201.885 273.644 203.501 268.746 205.053C259.123 208.157 249.384 211.003 240.395 216.176C239.473 216.758 240.337 218.439 241.317 217.857Z" fill="#161616"/>
<path d="M242.123 217.469C281.942 202.014 321.646 186.365 361.349 170.457C364.461 169.228 363.136 163.602 359.966 164.831C320.32 180.739 280.559 196.388 240.74 211.843C237.629 213.072 238.954 218.698 242.123 217.469Z" fill="#161616"/>
<path d="M237.629 155.001C245.12 155.842 251.516 160.951 258.892 162.567C259.987 162.826 260.448 160.951 259.353 160.692C251.862 159.011 245.35 153.902 237.629 153.061C236.534 152.997 236.534 154.937 237.629 155.001Z" fill="#161616"/>
<path d="M259.411 161.662C263.963 158.881 268.227 155.583 272.088 151.703C272.895 150.863 271.685 149.505 270.878 150.345C267.075 154.096 262.984 157.329 258.546 159.981C257.567 160.627 258.431 162.309 259.411 161.662Z" fill="#161616"/>
<path d="M239.415 151.315C243.045 148.405 246.791 145.625 250.652 143.038C251.632 142.391 250.71 140.71 249.788 141.357C245.927 143.943 242.181 146.659 238.551 149.634C237.629 150.41 238.493 152.091 239.415 151.315Z" fill="#161616"/>
<path d="M250.94 143.361C257.509 146.142 264.078 148.858 270.705 151.639C271.743 152.091 272.204 150.216 271.166 149.763C264.597 146.983 258.028 144.267 251.401 141.486C250.364 141.098 249.903 142.973 250.94 143.361Z" fill="#161616"/>
<path d="M232.442 162.373C249.788 168.387 266.902 175.307 283.671 183.131C284.708 183.584 285.169 181.709 284.132 181.256C267.363 173.431 250.249 166.512 232.903 160.498C231.809 160.11 231.348 161.985 232.442 162.373Z" fill="#161616"/>
<path d="M234.114 177.441C244.889 183.261 255.781 188.757 266.787 194.125C267.824 194.642 268.689 192.961 267.651 192.443C256.645 187.141 245.754 181.579 234.978 175.759C233.998 175.242 233.134 176.923 234.114 177.441Z" fill="#161616"/>
<path d="M235.669 194.06C241.547 197.423 247.425 200.85 253.303 204.213C254.282 204.795 255.147 203.113 254.167 202.531C248.289 199.169 242.412 195.741 236.534 192.379C235.554 191.797 234.69 193.478 235.669 194.06Z" fill="#161616"/>
<path d="M239.012 194.642C247.137 186.882 255.665 179.769 264.54 173.173C265.462 172.461 264.597 170.78 263.675 171.491C254.686 178.152 246.042 185.459 237.802 193.284C236.937 194.125 238.147 195.483 239.012 194.642Z" fill="#161616"/>
<path d="M236.879 181.385C241.489 177.764 246.099 174.143 250.709 170.457C251.631 169.745 250.767 168.064 249.845 168.775C245.235 172.397 240.625 176.018 236.015 179.704C235.151 180.415 236.015 182.097 236.879 181.385Z" fill="#161616"/>
<path d="M239.761 216.693C167.326 202.855 94.8915 189.016 22.4569 175.177C15.6571 117.43 8.79975 59.7473 2 2C79.9666 13.7693 157.876 25.5387 235.842 37.3727C237.168 97.1247 238.493 156.877 239.761 216.693Z" fill="white" stroke="#161616" stroke-width="3" stroke-miterlimit="10"/>
<path d="M110.681 116.783C104.4 114.585 101 108.635 100.481 101.457C99.9624 94.15 101.23 87.1014 107.281 83.286C112.64 79.9234 119.036 80.8934 123.819 84.9674C128.602 89.0414 132.866 97.3833 129.005 103.785C128.372 104.82 129.87 105.79 130.504 104.755C134.653 97.9007 130.734 88.8474 125.663 84.1267C120.419 79.2767 113.331 77.7894 107.166 81.2167C100.02 85.1614 98.1761 93.18 98.7523 101.522C99.3286 109.605 103.132 116.266 110.22 118.723C111.257 119.047 111.718 117.171 110.681 116.783Z" fill="#161616"/>
<path d="M112.294 117.495C109.643 112.58 110.508 105.725 114.772 102.298C119.036 98.8706 125.145 100.293 128.372 104.691C129.063 105.661 130.273 104.303 129.582 103.333C125.778 98.224 118.633 96.8013 113.677 100.746C108.721 104.755 107.684 112.774 110.796 118.465C111.372 119.499 112.87 118.529 112.294 117.495Z" fill="#161616"/>
<path d="M118.23 120.211C115.521 116.977 115.925 110.963 119.555 108.635C123.128 106.307 127.968 108.959 129.121 113.227C129.467 114.391 131.138 113.938 130.792 112.709C129.294 107.277 123.243 104.044 118.691 107.019C114.138 109.993 113.562 117.495 117.019 121.633C117.769 122.474 118.979 121.116 118.23 120.211Z" fill="#161616"/>
<path d="M122.667 124.737C124.914 125.643 127.507 124.155 128.372 121.763C129.294 119.37 128.084 116.783 126.067 115.749C124.05 114.714 121.63 115.296 120.535 117.495C119.497 119.629 119.843 122.539 121.572 124.091C122.436 124.867 123.646 123.509 122.782 122.733C120.477 120.728 122.091 116.007 125.145 117.43C126.47 118.012 127.392 119.564 126.758 121.181C126.124 122.733 124.511 123.509 123.128 122.927C122.091 122.474 121.63 124.349 122.667 124.737Z" fill="#161616"/>
<path d="M235.842 37.308L240.913 215.465" stroke="#161616" stroke-width="3" stroke-miterlimit="10"/>
<path d="M236.188 37.1786C237.744 95.7666 239.3 154.355 240.856 212.943" stroke="#161616" stroke-width="3" stroke-miterlimit="10"/>
<path opacity="0.37" d="M136.439 25.28C140.185 27.4787 172.339 47.1373 174.587 82.0573C175.855 101.328 167.441 115.943 162.14 124.867C133.558 173.108 77.0277 181.644 61.6995 183.455C84.0003 200.074 161.909 254.847 247.079 251.613C266.038 250.902 295.426 249.415 327.293 229.756C351.207 215.012 366.709 196.065 375.583 183.455C370.109 179.639 364.692 175.889 359.217 172.073C318.995 187.529 278.715 202.984 238.493 218.375C236.418 158.623 234.344 98.9353 232.269 39.1833C200.288 34.6567 168.363 30.0007 136.439 25.28Z" fill="#3D3D3D"/>
<path opacity="0.5" d="M90.6272 187.658C98.1184 193.219 109.701 201.173 124.684 208.804C143.354 218.375 198.616 246.699 258.489 230.985C301.996 219.539 335.649 188.175 333.459 183.002C332.076 179.769 315.192 183.131 239.991 216.693C238.781 189.339 237.571 161.921 236.418 134.567C234.344 157.588 232.212 180.609 230.137 203.566C183.634 198.328 137.131 192.961 90.6272 187.658Z" fill="#3D3D3D"/>
</svg>
