<svg width="266" height="276" viewBox="0 0 266 276" fill="none" xmlns="http://www.w3.org/2000/svg">
<g clip-path="url(#clip0)">
<path d="M57.1359 131.733L56.0183 58.6492C56.017 57.6427 56.3568 56.6251 56.9922 55.733C57.6276 54.8409 58.5282 54.117 59.5731 53.6585V53.6585L120.837 143.53C120.837 143.53 102.959 166.322 101.836 165.343C100.712 164.363 57.1359 131.733 57.1359 131.733Z" fill="#ECECEC"/>
<path d="M59.3944 53.7407L62.8518 130.969L100.931 158.658C100.931 158.658 118.454 140.705 117.859 139.847C117.264 138.989 59.3944 53.7407 59.3944 53.7407Z" fill="#585858"/>
<path d="M61.0389 128.442L175.608 101.53C178.317 100.927 181.071 101.117 183.46 102.07C185.85 103.024 187.749 104.691 188.875 106.824L236.807 203.014C237.941 205.48 236.177 208.717 232.964 209.264L143.341 226.383C141.15 226.8 138.941 226.694 136.938 226.073C134.934 225.453 133.209 224.341 131.935 222.85L57.9796 135.453C55.9169 132.854 57.4618 129.152 61.0389 128.442Z" fill="#ECECEC"/>
<path d="M159.683 183.506C166.029 182.332 170.875 178.471 170.506 174.881C170.136 171.291 164.693 169.332 158.346 170.505C152 171.679 147.155 175.54 147.524 179.13C147.893 182.72 153.337 184.679 159.683 183.506Z" fill="#585858"/>
</g>
<defs>
<clipPath id="clip0">
<rect width="214" height="194" fill="white" transform="translate(176.256) rotate(65.3038)"/>
</clipPath>
</defs>
</svg>
