<svg width="371" height="733" viewBox="0 0 371 733" fill="none" xmlns="http://www.w3.org/2000/svg">
<path d="M368.818 660.345L318.13 727.73C316.936 729.318 315.16 730.366 313.193 730.644C311.226 730.922 309.229 730.408 307.642 729.213L302.937 725.674L362.63 646.318L367.335 649.857C368.922 651.051 369.97 652.827 370.248 654.794C370.527 656.761 370.012 658.758 368.818 660.345Z" fill="#5661AE"/>
<path d="M321.002 620.885L339.279 635.738L320.711 664.387L300.109 648.66L321.002 620.885Z" fill="#BC775C"/>
<path d="M329.12 628.122L306.357 652.951L300.818 648.582L322.136 622.389L329.12 628.122Z" fill="#93523E" stroke="#93523E"/>
<path d="M336.829 633.896C336.829 633.896 331.695 651.944 314.789 661.189L299.517 720.891C300.002 724.318 303.831 726.519 306.376 727.335C306.936 727.511 307.536 727.509 308.094 727.329C308.652 727.148 309.14 726.799 309.49 726.328L363.675 654.294C364.58 653.092 364.978 651.584 364.782 650.092C364.587 648.601 363.814 647.245 362.629 646.318C357.891 642.606 350.627 637.01 347.481 635.09C342.618 632.121 339.151 631.434 336.829 633.896Z" fill="#1C85E8"/>
<path d="M311.254 673.569L319.944 671.705C320.261 671.637 320.59 671.648 320.902 671.737C321.214 671.826 321.5 671.991 321.734 672.216C321.967 672.441 322.142 672.721 322.242 673.029C322.343 673.338 322.365 673.667 322.309 673.986C322.24 674.378 322.054 674.74 321.776 675.025C321.498 675.309 321.141 675.504 320.751 675.583L310.083 677.736L311.254 673.569Z" fill="white"/>
<path d="M309.203 683.029L317.848 681.145C318.165 681.077 318.495 681.088 318.807 681.177C319.119 681.266 319.404 681.43 319.638 681.655C319.872 681.881 320.046 682.16 320.147 682.469C320.247 682.777 320.27 683.106 320.213 683.426C320.144 683.817 319.958 684.179 319.68 684.464C319.402 684.749 319.045 684.943 318.655 685.022L308.135 687.205L309.203 683.029Z" fill="white"/>
<path d="M306.568 693.328L315.114 691.419C315.431 691.351 315.761 691.362 316.073 691.451C316.385 691.54 316.67 691.704 316.904 691.93C317.138 692.155 317.312 692.434 317.413 692.743C317.513 693.052 317.536 693.38 317.479 693.7C317.41 694.092 317.224 694.454 316.947 694.738C316.669 695.023 316.311 695.218 315.921 695.296L305.527 697.394L306.568 693.328Z" fill="white"/>
<path d="M147.287 542.354L291.955 658.909L324.96 620.448L198.467 501.778L147.287 542.354Z" fill="#1F2D49"/>
<path d="M224.884 526.56V604.871L291.956 658.909L301.589 598.521L224.884 526.56Z" fill="#0D1B33"/>
<path d="M160.126 328.075L136.346 517.703H202.833L260.59 329.026L160.126 328.075Z" fill="#1F2D49"/>
<path d="M217.213 470.726L228.38 376.653H255.836L217.213 470.726Z" fill="#0D1B33"/>
<path d="M276.895 732.041H192.574C190.587 732.041 188.682 731.251 187.277 729.847C185.873 728.442 185.084 726.537 185.084 724.55V718.663H284.385V724.55C284.385 726.537 283.596 728.442 282.191 729.847C280.786 731.251 278.881 732.041 276.895 732.041Z" fill="#5661AE"/>
<path d="M279.686 670.108L278.802 693.643L244.746 696.027L244.929 670.108H279.686Z" fill="#BC775C"/>
<path d="M278.781 680.946L245.257 677.68L245.417 670.627L279.165 671.918L278.781 680.946Z" fill="#93523E" stroke="#93523E"/>
<path d="M278.802 690.578C278.802 690.578 261.293 697.324 243.742 689.371L186.851 713.055C184.403 715.502 184.946 719.885 185.824 722.41C186.02 722.963 186.382 723.441 186.862 723.779C187.341 724.116 187.914 724.296 188.5 724.293H278.639C280.143 724.294 281.588 723.705 282.662 722.652C283.737 721.599 284.355 720.167 284.385 718.663C284.503 712.645 284.608 703.476 284.251 699.807C283.701 694.136 282.166 690.953 278.802 690.578Z" fill="#1C85E8"/>
<path d="M231.723 693.988L238.436 699.812C238.681 700.025 238.871 700.295 238.987 700.598C239.104 700.9 239.144 701.227 239.104 701.55C239.065 701.872 238.946 702.179 238.76 702.445C238.574 702.711 238.325 702.927 238.035 703.073C237.681 703.254 237.28 703.323 236.885 703.272C236.49 703.221 236.12 703.052 235.823 702.788L227.689 695.557L231.723 693.988Z" fill="white"/>
<path d="M222.93 698.035L229.633 703.811C229.878 704.024 230.067 704.293 230.184 704.596C230.3 704.899 230.34 705.226 230.301 705.548C230.261 705.87 230.143 706.178 229.957 706.444C229.77 706.709 229.521 706.925 229.232 707.072C228.877 707.252 228.476 707.322 228.082 707.271C227.687 707.22 227.317 707.051 227.02 706.787L218.951 699.691L222.93 698.035Z" fill="white"/>
<path d="M213.116 702.121L219.779 707.803C220.024 708.016 220.213 708.286 220.33 708.589C220.446 708.892 220.487 709.219 220.447 709.541C220.407 709.863 220.289 710.17 220.103 710.436C219.916 710.702 219.668 710.918 219.378 711.065C219.023 711.245 218.623 711.314 218.228 711.263C217.833 711.212 217.463 711.043 217.166 710.779L209.241 703.734L213.116 702.121Z" fill="white"/>
<path d="M300.923 329.026C300.377 338.643 300.377 348.282 300.923 357.898C303.134 388.983 296.066 479.755 296.123 491.699C296.18 503.644 288.312 671.877 288.312 671.877H240.511C240.511 671.877 228.292 527.296 228.01 510.749C227.728 494.203 224.884 329.706 224.884 329.706L300.923 329.026Z" fill="#1F2D49"/>
<path d="M158.686 339.557L300.924 357.898V329.026L159.423 333.679L158.686 339.557Z" fill="#0D1B33"/>
<path d="M169.589 550.946C187.949 550.946 202.832 536.063 202.832 517.703C202.832 499.343 187.949 484.459 169.589 484.459C151.229 484.459 136.346 499.343 136.346 517.703C136.346 536.063 151.229 550.946 169.589 550.946Z" fill="#1F2D49"/>
<path d="M268.532 349.973C268.532 349.973 262.147 362.046 260.589 363.432C259.032 364.817 233.354 367.984 228.38 369.765C223.407 371.546 221.032 374.239 221.032 376.653H281.396C281.396 376.653 282.958 375.197 284.083 370.557C285.209 365.916 287.177 363.948 287.177 363.948L268.532 349.973Z" fill="#BC775C"/>
<path d="M181.769 159.777C185.739 140.178 176.403 140.683 173.296 137.567C173.296 137.567 161.641 127.955 152.759 136.915C143.358 146.392 89.4702 220.012 89.4702 220.012L123.188 251.023L129.526 243.46L145.943 223.88L163.503 202.952L165.685 200.57L189.373 173.739C189.373 173.739 179.524 170.094 181.769 159.777Z" fill="#5661AE"/>
<path d="M195.871 163.116C200.417 149.546 193.1 134.86 179.53 130.315C165.96 125.77 151.274 133.086 146.729 146.656C142.184 160.227 149.5 174.912 163.07 179.457C176.641 184.003 191.326 176.686 195.871 163.116Z" fill="#5661AE"/>
<path d="M165.374 200.466C166.054 196.369 167.414 188.177 168.877 180.711L176.657 144.573C176.657 144.573 155.763 175.453 146.138 196.963C139.009 213.082 130.739 229.511 129.371 243.408L145.788 223.827L163.348 202.9L165.374 200.466Z" fill="#465393"/>
<path d="M55.7902 137.128C47.7782 122.515 51.6292 120.034 48.2202 111.719C44.8622 103.606 50.8252 83.4929 45.1172 86.2349C39.4092 88.9779 37.6432 96.2659 37.6432 96.2659C33.7392 89.3609 30.1441 76.6549 20.8001 75.2009C11.4541 73.7469 10.6271 76.6879 5.33014 81.0349C-8.76186 92.7589 9.20716 110.38 12.2072 117.09C14.1372 121.296 28.3141 134.118 29.8861 136.921L37.0212 147.272L55.7902 137.128Z" fill="#BC775C"/>
<path d="M28.2601 97.1719L16.873 76.1469" stroke="#93523E" stroke-width="1.07832" stroke-linecap="round"/>
<path d="M20.8001 100.576L8.38916 80.9959" stroke="#93523E" stroke-width="1.07832" stroke-linecap="round"/>
<path d="M11.9348 104.34L4.8418 92.4819" stroke="#93523E" stroke-width="1.07832" stroke-linecap="round"/>
<path d="M31.0742 115.68C31.1342 108.4 35.5032 99.5909 35.5032 99.5909" stroke="#93523E" stroke-width="1.07832" stroke-linecap="round"/>
<path d="M123.474 219.426L54.9091 128.117C54.4721 127.581 53.8521 127.225 53.1681 127.119C52.4841 127.012 51.7861 127.163 51.2061 127.541L33.2531 139.415C32.3991 139.993 31.7921 140.867 31.5471 141.868C31.3031 142.869 31.4391 143.926 31.9301 144.832L87.0681 246.517L123.474 219.426Z" fill="#5661AE"/>
<path d="M106.814 257.992C119.495 257.992 129.775 247.712 129.775 235.031C129.775 222.35 119.495 212.071 106.814 212.071C94.133 212.071 83.854 222.35 83.854 235.031C83.854 247.712 94.133 257.992 106.814 257.992Z" fill="#5661AE"/>
<path d="M202.751 116.927C202.751 116.927 169.274 127.575 162.669 130.338C156.064 133.101 155.624 144.153 155.184 151.981C154.875 157.466 161.066 247.532 161.473 299.694C161.56 310.838 159.482 317.908 158.148 324.102C156.813 330.296 158.148 333.667 158.148 333.667L301.589 334.95C301.589 334.95 297.289 153.713 296.408 147.267C295.527 140.82 302.447 135.268 294.946 132.023L240.173 116.927H202.751Z" fill="white"/>
<path d="M184.75 122.74C184.75 122.74 190.216 147.74 193.797 167.748C197.378 187.756 198.468 353.392 198.468 353.392C198.468 353.392 156.553 345.243 150.875 335.614C145.198 325.984 156.134 282.719 156.985 243.408C157.836 204.097 149.561 143.09 158.249 132.507C158.249 132.507 160.478 130.299 184.75 122.74Z" fill="#5661AE"/>
<path d="M255.196 121.133C255.196 121.133 235.308 162.569 236.525 175.198C237.741 187.827 237.81 295.528 236.525 318.014C235.726 331.693 233.642 345.267 230.3 358.555C230.3 358.555 284.554 362.397 305.519 355.835C305.519 355.835 315.471 293.179 308.939 270.796C302.406 248.413 297.416 132.083 297.416 132.083L255.196 121.133Z" fill="#5661AE"/>
<path d="M269.871 176.816C269.871 176.816 271.908 251.911 271.485 276.942C271.221 292.54 253.387 299.146 253.334 308.177C253.303 313.52 267.416 307.265 271.221 312.789C275.025 318.312 268.521 335.614 268.521 335.614L301.588 334.95L314.832 270.681L286.927 172.951L269.871 176.816Z" fill="#465393"/>
<path d="M203.439 100.189L200.334 135.186C200.334 135.186 199.505 140.622 208.947 142.342C216.444 143.707 232.023 134.898 235.539 131.996C243.355 125.546 244.078 121.643 243.252 118.654C242.068 114.371 238.201 84.1909 238.201 84.1909L203.439 100.189Z" fill="#BC775C"/>
<path d="M201.4 128.83L203.313 107.259L219.976 99.0279L201.4 128.83Z" fill="#93523E" stroke="#93523E"/>
<path d="M184.915 33.9509C184.915 33.9509 178.531 62.5439 177.681 82.0169C176.824 101.664 183.845 105.405 192.549 106.872C199.414 108.029 210.093 108.113 216.808 104.76C229.053 98.6449 249.156 83.8049 251.787 80.9249C255.861 76.4669 255.581 56.5839 240.023 51.6669C228.706 48.0899 199.852 17.7249 184.915 33.9509Z" fill="#BC775C"/>
<path d="M184.977 36.9999C194.26 40.6389 211.732 38.2479 221.329 41.3629C230.913 44.4869 222.192 47.7839 222.61 57.0419C222.879 63.0389 223.335 74.4989 227.015 74.3469C230.696 74.1959 232.863 61.1809 240.624 61.6769C248.383 62.1829 252.043 65.4969 251.873 70.4609C251.705 75.4139 246.128 79.7309 241.729 82.0229C236.222 84.8749 233.949 83.6799 233.949 83.6799C233.949 83.6799 240.147 106.499 241.083 105.595C241.083 105.595 247.768 101.823 248.974 95.2169C248.974 95.2169 257.846 93.2949 255.881 84.4219C255.881 84.4219 261.407 82.6489 258.785 77.5119C258.785 77.5119 273.064 67.9099 265.622 56.1599C265.622 56.1599 272.398 49.4039 264.305 46.5479C264.305 46.5479 275.022 30.8859 259.776 27.5459C259.776 27.5459 260.798 20.1739 253.819 20.4549C253.819 20.4549 250.768 7.77491 235.537 12.7759C235.465 10.2369 234.626 7.77891 233.132 5.72491C231.638 3.67091 229.558 2.1159 227.164 1.2649C218.538 -2.2081 212.924 2.57191 212.924 2.57191C212.924 2.57191 203.871 -4.81209 199.104 6.01391C199.104 6.01391 192.257 2.51391 187.124 6.23291C181.983 9.93991 184.482 17.7109 184.482 17.7109C184.482 17.7109 178.607 16.3339 176.463 21.1999C173.435 28.0469 177.687 30.5419 177.687 30.5419C177.687 30.5419 168.122 41.8499 181.573 52.5609L184.977 36.9999Z" fill="#493212"/>
<path d="M208.34 65.2279C208.845 62.9149 208.026 60.7719 206.511 60.4409C204.996 60.1099 203.358 61.7169 202.853 64.0289C202.348 66.3409 203.167 68.4839 204.682 68.8149C206.197 69.1459 207.834 67.5399 208.34 65.2279Z" fill="#080B09"/>
<path d="M187.494 60.5329C187.999 58.2209 187.18 56.0779 185.665 55.7469C184.15 55.4159 182.513 57.0219 182.007 59.3349C181.502 61.6469 182.321 63.7899 183.836 64.1209C185.351 64.4519 186.989 62.8459 187.494 60.5329Z" fill="#080B09"/>
<path d="M191.615 66.6729C191.615 66.6729 194.203 71.6589 190.463 71.7349C186.889 71.6849 184.807 73.7819 188.412 76.8209" stroke="#93523E" stroke-width="1.07832" stroke-linecap="round"/>
<path d="M188.965 81.4309L188.981 81.4329L188.997 81.4339C191.214 81.5939 195.641 81.9119 198.584 82.1729H198.589C198.675 82.1799 198.757 82.2099 198.827 82.2599C198.897 82.3109 198.952 82.3789 198.986 82.4589C199.02 82.5379 199.031 82.6249 199.019 82.7099C199.007 82.7919 198.974 82.8699 198.922 82.9349C198.275 83.6479 197.423 84.4959 196.476 85.2269C195.519 85.9659 194.497 86.5599 193.515 86.7969C192.553 87.0279 191.646 86.9149 190.834 86.2639C189.998 85.5929 189.198 84.2989 188.601 82.0239L188.591 81.9849L188.575 81.9479C188.548 81.8879 188.538 81.8219 188.545 81.7559C188.553 81.6899 188.578 81.6279 188.618 81.5749C188.657 81.5219 188.71 81.4809 188.771 81.4559C188.832 81.4299 188.899 81.4219 188.965 81.4309Z" fill="#93523E" stroke="#93523E"/>
<path d="M215.603 57.6079L215.396 58.0269C215.146 58.6639 214.655 59.1759 214.03 59.4529C213.405 59.7289 212.695 59.7469 212.057 59.5019L201.194 55.0059C200.66 54.8099 200.218 54.4199 199.957 53.9139C199.696 53.4079 199.634 52.8219 199.785 52.2729C199.861 51.9319 200.008 51.6109 200.218 51.3319C200.427 51.0519 200.693 50.8209 200.999 50.6519C201.304 50.4829 201.642 50.3799 201.99 50.3519C202.338 50.3229 202.688 50.3679 203.018 50.4849L214.088 54.5629C214.39 54.6579 214.671 54.8139 214.912 55.0199C215.153 55.2269 215.35 55.4799 215.492 55.7639C215.633 56.0479 215.716 56.3579 215.735 56.6749C215.754 56.9919 215.709 57.3089 215.603 57.6079Z" fill="#080B09"/>
<path d="M178.951 47.4949L190.721 46.7009C191.07 46.6819 191.418 46.7369 191.744 46.8629C192.07 46.9889 192.366 47.1819 192.611 47.4299C192.857 47.6779 193.047 47.9759 193.169 48.3029C193.291 48.6299 193.342 48.9789 193.319 49.3279C193.309 49.8969 193.085 50.4419 192.692 50.8539C192.299 51.2659 191.765 51.5149 191.197 51.5529L179.508 52.8059C178.826 52.8609 178.15 52.6449 177.628 52.2029C177.106 51.7619 176.779 51.1319 176.72 50.4509L176.638 49.9909C176.621 49.6739 176.667 49.3559 176.775 49.0579C176.882 48.7589 177.049 48.4849 177.265 48.2519C177.481 48.0189 177.741 47.8319 178.031 47.7019C178.32 47.5719 178.633 47.5019 178.951 47.4949Z" fill="#080B09"/>
<path d="M298.493 150.091C283.719 136.616 279.356 144.885 275.086 145.95C275.086 145.95 260.852 151.011 263.975 163.234C267.276 176.168 302.749 260.225 302.749 260.225L347.51 249.629L343.446 237.907L335.082 213.762L326.15 187.945L325.227 184.849L314.379 150.741C314.379 150.741 306.192 157.318 298.493 150.091Z" fill="#5661AE"/>
<path d="M305.771 176.245C316.642 166.938 317.911 150.58 308.604 139.709C299.297 128.837 282.939 127.569 272.067 136.876C261.196 146.183 259.928 162.541 269.235 173.412C278.541 184.284 294.899 185.552 305.771 176.245Z" fill="#5661AE"/>
<path d="M302.406 248.413L262.82 355.517C262.606 356.175 262.643 356.889 262.924 357.521C263.205 358.154 263.71 358.659 264.342 358.941L284.05 367.596C284.998 368 286.063 368.037 287.036 367.7C288.01 367.363 288.824 366.676 289.32 365.772L344.903 264.33L302.406 248.413Z" fill="#5661AE"/>
<path d="M324.55 276.919C337.231 276.919 347.51 266.639 347.51 253.958C347.51 241.277 337.231 230.998 324.55 230.998C311.869 230.998 301.589 241.277 301.589 253.958C301.589 266.639 311.869 276.919 324.55 276.919Z" fill="#5661AE"/>
</svg>
