<svg width="139" height="159" viewBox="0 0 139 159" fill="none" xmlns="http://www.w3.org/2000/svg">
<path d="M69.9959 143.802C66.4765 149.443 59.1332 151.273 53.6774 147.869L13.9991 123.112C8.54335 119.707 6.95904 112.307 10.4784 106.667L68.0684 14.3668C71.5878 8.7262 78.9311 6.89637 84.3869 10.3005L124.065 35.0575C129.521 38.4616 131.105 45.8617 127.586 51.5023L69.9959 143.802Z" fill="#E3EEFF"/>
<path d="M52.0777 150.432L12.3994 125.675C5.57974 121.42 3.59935 112.17 7.99858 105.119L65.5886 12.8194C69.9878 5.76875 79.1669 3.48146 85.9866 7.73657L125.665 32.4936C132.485 36.7487 134.465 45.9989 130.066 53.0496L72.4758 145.35C68.0766 152.4 58.8974 154.688 52.0777 150.432ZM82.7872 12.8643C78.6954 10.3113 73.1879 11.6837 70.5483 15.9141L12.9584 108.214C10.3188 112.444 11.5071 117.995 15.5989 120.548L55.2772 145.305C59.369 147.858 64.8765 146.485 67.516 142.255L125.106 49.955C127.746 45.7246 126.557 40.1744 122.465 37.6214L82.7872 12.8643Z" fill="#767880"/>
<path d="M38.6373 127.798C41.3765 129.507 45.0295 128.597 46.7965 125.765C48.5636 122.933 47.7754 119.252 45.0362 117.543C42.297 115.834 38.644 116.744 36.877 119.576C35.11 122.408 35.8981 126.089 38.6373 127.798Z" fill="#767880"/>
<path d="M99.0672 33.7082L96.5873 32.1609C95.2234 31.3098 94.8273 29.4598 95.7072 28.0497C96.587 26.6395 98.4228 26.1821 99.7868 27.0331L102.267 28.5804C103.631 29.4314 104.027 31.2815 103.147 32.6916C102.267 34.1017 100.431 34.5592 99.0672 33.7082Z" fill="#767880"/>
<path d="M124.386 56.63L64.8689 19.4945L20.0767 91.2834L79.5941 128.419L124.386 56.63Z" fill="#493F3F"/>
<path d="M77.9945 130.983L18.477 93.8472C17.1131 92.9962 16.717 91.1462 17.5969 89.736L62.389 17.9472C63.2689 16.5371 65.1047 16.0796 66.4687 16.9306L125.986 54.0661C127.35 54.9172 127.746 56.7672 126.866 58.1773L82.0741 129.966C81.1942 131.376 79.3584 131.834 77.9945 130.983ZM24.1564 90.2668L78.714 124.308L120.307 57.6466L65.7491 23.6057L24.1564 90.2668Z" fill="#363334"/>
</svg>
