<svg width="386" height="386" viewBox="0 0 386 386" fill="none" xmlns="http://www.w3.org/2000/svg">
<path d="M170.055 292.479L292.783 170.673C297.83 165.663 298.555 158.21 294.404 154.027L251.442 110.74C247.289 106.557 239.831 107.227 234.785 112.236L112.057 234.043C107.009 239.052 106.284 246.505 110.436 250.688L153.397 293.975C157.549 298.158 165.008 297.488 170.055 292.479Z" fill="#273B7A"/>
<path d="M234.784 112.235L173.182 173.374L231.181 231.812L292.782 170.673C297.83 165.663 298.555 158.21 294.403 154.027L251.442 110.74C247.29 106.556 239.831 107.225 234.784 112.235Z" fill="#121149"/>
<path d="M179.673 108.932L109.169 178.906L157.502 227.604L228.005 157.63L179.673 108.932Z" fill="white"/>
<path d="M257.005 186.848L186.501 256.823L205.834 276.302L276.337 206.328L257.005 186.848Z" fill="white"/>
<path d="M179.675 108.931L144.186 144.153L192.518 192.851L228.007 157.628L179.675 108.931Z" fill="#D0D1D3"/>
<path d="M257.006 186.847L221.518 222.069L240.851 241.548L276.339 206.326L257.006 186.847Z" fill="#D0D1D3"/>
<path d="M272.923 132.383L131.916 272.331L141.582 282.07L282.589 142.122L272.923 132.383Z" fill="#386895"/>
<path d="M272.923 132.382L202.185 202.59L211.851 212.329L282.589 142.122L272.923 132.382Z" fill="#273B7A"/>
<path d="M132.098 243.144C133.72 241.534 133.954 239.139 132.619 237.794C131.284 236.449 128.887 236.664 127.265 238.275C125.642 239.885 125.409 242.28 126.744 243.625C128.078 244.97 130.476 244.755 132.098 243.144Z" fill="#FF5419"/>
<path d="M143.849 231.482C145.471 229.872 145.705 227.476 144.37 226.131C143.035 224.787 140.638 225.002 139.016 226.612C137.393 228.222 137.16 230.618 138.495 231.962C139.829 233.307 142.226 233.092 143.849 231.482Z" fill="#8BC180"/>
</svg>
