<svg width="270" height="240" viewBox="0 0 270 240" fill="none" xmlns="http://www.w3.org/2000/svg">
<path d="M9 8H184.5V36H193.5V4C193.5 1.6 191.7 0 189 0H4.5C1.8 0 0 1.6 0 4V236C0 238.4 1.8 240 4.5 240H148.5V232H9V8Z" fill="#41A06F"/>
<path d="M196.65 85.1999L184.05 58.7999C183.6 57.1999 181.8 56.3999 180 56.3999C178.2 56.3999 176.85 57.1999 175.95 58.7999L163.35 85.1999C162.45 85.9999 162 86.7999 162 87.9999V212V236C162 238.4 163.8 240 166.5 240H193.5C196.2 240 198 238.4 198 236V212V87.9999C198 86.7999 197.55 85.5999 196.65 85.1999ZM171 91.9999H189V208H171V91.9999ZM180 69.9999L186.75 83.9999H173.25L180 69.9999ZM189 232H171V216H189V232Z" fill="#41A06F"/>
<path d="M265.5 152H216C213.3 152 211.5 153.6 211.5 156V236C211.5 238.4 213.3 240 216 240H265.5C268.2 240 270 238.4 270 236V156C270 153.6 268.2 152 265.5 152ZM261 160V180H220.5V160H261ZM220.5 232V188H261V232H220.5Z" fill="#41A06F"/>
<path d="M121.5 80H67.5V88H121.5V80Z" fill="#41A06F"/>
<path d="M170 36H23V44H170V36Z" fill="#41A06F"/>
<path d="M121.5 100H67.5V108H121.5V100Z" fill="#41A06F"/>
<path d="M94.5 124H27V132H94.5V124Z" fill="#41A06F"/>
<path d="M144 144H27V152H144V144Z" fill="#41A06F"/>
<path d="M144 164H27V172H144V164Z" fill="#41A06F"/>
<path d="M63 184H27V192H63V184Z" fill="#41A06F"/>
<path d="M76.5 204H27V212H76.5V204Z" fill="#41A06F"/>
<path d="M130.5 184H94.5V192H130.5V184Z" fill="#41A06F"/>
<path d="M144 204H94.5V212H144V204Z" fill="#41A06F"/>
</svg>
